<?xml version="1.0" standalone="no"?>
<!DOCTYPE svg PUBLIC "-//W3C//DTD SVG 20010904//EN"
 "http://www.w3.org/TR/2001/REC-SVG-20010904/DTD/svg10.dtd">
<svg version="1.0" xmlns="http://www.w3.org/2000/svg"
 width="640.000000pt" height="640.000000pt" viewBox="0 0 640.000000 640.000000"
 preserveAspectRatio="xMidYMid meet">

<g transform="translate(0.000000,640.000000) scale(0.100000,-0.100000)"
fill="#000000" stroke="none">
<path d="M3733 5928 c-28 -37 -54 -145 -103 -428 -21 -120 -8 -179 49 -219 98
-70 206 -116 348 -149 l83 -19 67 48 c38 27 97 71 133 99 36 28 75 53 88 56
19 5 22 11 17 38 -11 68 -25 187 -36 291 -13 139 -23 176 -55 215 -21 24 -33
30 -67 30 -23 0 -112 9 -197 19 -241 30 -315 34 -327 19z"/>
<path d="M2886 5805 c-7 -19 -14 -20 -162 -18 -84 2 -171 -1 -191 -5 -35 -7
-38 -11 -41 -47 -4 -44 10 -101 45 -190 22 -56 26 -61 71 -76 45 -15 59 -15
189 2 78 9 151 22 162 28 11 7 27 25 36 40 14 27 75 234 75 254 0 5 -14 6 -30
2 -18 -4 -36 -2 -45 5 -9 7 -15 8 -20 0 -10 -17 -25 -11 -18 7 6 16 5 16 -17
0 -31 -21 -37 -21 -43 1 -4 15 -6 15 -11 -3z"/>
<path d="M4644 5206 c-19 -15 -18 -16 7 -63 108 -196 120 -225 114 -267 -4
-23 -16 -50 -28 -61 -12 -11 -39 -45 -59 -75 -21 -30 -81 -102 -134 -160 -131
-142 -191 -215 -199 -241 -5 -15 0 -30 14 -48 29 -35 60 -101 61 -126 0 -11
13 -59 30 -106 16 -47 34 -115 39 -150 33 -204 66 -235 309 -288 124 -28 131
-28 312 -20 119 5 204 13 237 24 l52 15 -20 44 c-10 24 -31 84 -45 133 -14 48
-52 153 -85 232 -62 149 -76 206 -65 263 3 18 43 83 90 148 167 228 176 242
182 295 7 60 -9 94 -140 292 -59 91 -94 134 -109 138 -22 4 -471 35 -518 35
-14 0 -34 -6 -45 -14z"/>
<path d="M2690 4551 c-111 -24 -194 -59 -282 -117 -167 -111 -317 -307 -388
-505 -10 -30 -19 -44 -19 -33 -2 41 -26 49 -150 49 -214 -1 -465 -17 -487 -30
-13 -9 -31 -47 -53 -117 -38 -119 -62 -163 -99 -182 -15 -7 -74 -25 -132 -41
-58 -15 -122 -34 -143 -43 -65 -27 -71 -49 -75 -276 -6 -293 -2 -297 242 -327
144 -17 152 -20 177 -47 30 -34 139 -346 139 -400 0 -38 -21 -92 -47 -121 -10
-11 -30 -35 -45 -53 -15 -18 -43 -53 -64 -78 -72 -88 -94 -130 -94 -184 0 -49
6 -60 124 -238 130 -193 166 -232 228 -243 43 -8 566 22 620 36 20 5 51 21 68
35 l30 26 88 -49 c128 -73 128 -70 134 -377 7 -288 11 -305 91 -345 56 -28
200 -64 347 -87 111 -17 170 -15 355 11 55 9 183 26 284 40 189 26 251 44 290
86 40 42 49 72 76 244 35 222 33 217 73 161 18 -25 49 -58 67 -72 62 -47 89
-48 444 -14 179 17 342 35 362 41 61 15 100 49 215 187 166 198 167 203 28
462 -47 87 -87 173 -90 191 -7 43 37 146 134 317 38 68 85 158 102 201 l33 79
51 6 c28 3 98 6 155 6 93 0 108 3 152 27 91 49 104 90 119 386 13 249 6 298
-50 352 l-31 30 -232 7 c-128 3 -265 9 -306 12 l-75 6 22 -20 c32 -30 30 -89
-4 -130 l-27 -31 -31 29 c-45 43 -81 59 -213 92 -188 47 -267 79 -301 119 -7
9 -26 43 -41 76 -41 85 -89 135 -133 135 -19 0 -38 4 -43 9 -22 22 -286 32
-450 17 -27 -3 -55 -5 -62 -6 -7 0 -19 -15 -28 -34 -14 -28 -15 -57 -9 -182
10 -234 11 -295 2 -300 -4 -3 -8 -15 -8 -28 0 -38 -50 -218 -81 -291 -49 -114
-118 -214 -214 -310 -124 -124 -238 -187 -398 -222 -95 -20 -301 -20 -388 1
-149 34 -292 119 -408 242 -136 144 -200 254 -263 457 -30 98 -32 109 -32 277
0 150 16 331 30 318 2 -2 -2 -49 -8 -103 -16 -146 1 -283 54 -433 70 -201 130
-302 261 -438 l78 -82 77 -3 c42 -2 182 -4 310 -4 182 0 231 -3 227 -12 -5
-16 11 -17 21 -2 4 6 19 9 36 5 25 -5 28 -4 19 8 -10 12 -5 15 29 21 22 4 40
11 40 16 0 6 -29 45 -64 87 -36 42 -84 109 -106 149 -153 267 -159 645 -15
933 66 132 230 320 345 396 50 33 62 29 147 -50 101 -93 197 -251 243 -401 19
-62 34 -68 26 -12 -16 124 -130 313 -281 464 -91 91 -112 106 -206 152 -132
63 -197 80 -329 86 -80 4 -125 1 -190 -14z m1665 -2537 c128 -194 174 -289
119 -243 -31 25 -245 360 -251 392 l-6 32 23 -20 c13 -11 65 -83 115 -161z"/>
<path d="M1072 4430 c5 -17 251 -279 257 -274 9 8 -41 68 -147 174 -63 63
-112 108 -110 100z"/>
<path d="M4268 3992 l-25 -29 44 -46 c24 -26 49 -47 56 -47 6 0 4 7 -5 17 -16
15 -16 18 7 39 29 27 31 43 9 70 -14 18 -15 18 -4 -3 16 -33 -4 -65 -37 -61
-54 6 -56 64 -2 79 21 6 22 7 3 8 -11 1 -32 -12 -46 -27z"/>
</g>
</svg>
