<?xml version="1.0" standalone="no"?>
<!DOCTYPE svg PUBLIC "-//W3C//DTD SVG 20010904//EN"
 "http://www.w3.org/TR/2001/REC-SVG-20010904/DTD/svg10.dtd">
<svg version="1.0" xmlns="http://www.w3.org/2000/svg"
 width="225.000000pt" height="225.000000pt" viewBox="0 0 225.000000 225.000000"
 preserveAspectRatio="xMidYMid meet">

<g transform="translate(0.000000,225.000000) scale(0.100000,-0.100000)"
fill="#000000" stroke="none">
<path d="M885 2239 c-172 -40 -424 -161 -441 -211 -3 -10 7 -56 22 -103 l28
-85 -42 -42 -42 -42 -85 28 c-47 15 -93 25 -103 22 -20 -7 -96 -128 -137 -217
-31 -68 -70 -196 -79 -261 l-7 -48 44 -28 c24 -15 63 -36 85 -46 l42 -19 0
-62 0 -62 -42 -19 c-22 -10 -61 -31 -86 -47 -44 -28 -44 -28 -37 -73 26 -179
168 -474 228 -474 16 0 84 62 236 214 l215 215 -29 82 c-62 178 -24 363 102
500 64 68 128 112 209 139 63 22 204 39 204 24 0 -4 -59 -67 -130 -140 l-130
-131 49 -139 c68 -192 67 -191 88 -197 10 -2 83 -28 162 -56 l144 -51 132 131
c149 147 155 148 135 25 -23 -143 -92 -261 -200 -340 -86 -64 -156 -87 -273
-94 -88 -4 -106 -2 -183 23 l-86 28 -214 -214 c-149 -149 -214 -220 -214 -236
0 -27 38 -57 140 -111 126 -67 340 -133 382 -117 8 3 32 42 53 85 l39 80 61 0
61 0 39 -80 c26 -54 46 -82 60 -86 41 -10 234 45 339 98 92 45 175 101 182
120 3 10 -7 56 -22 103 l-28 85 42 42 41 42 92 -29 92 -30 31 37 c71 82 161
290 187 432 10 59 10 61 -16 82 -15 12 -53 34 -86 49 l-59 29 0 61 0 62 42 19
c22 10 61 31 86 47 44 28 44 28 37 73 -9 63 -50 196 -80 263 -41 89 -117 210
-137 217 -10 3 -56 -7 -103 -22 l-85 -28 -42 42 -42 41 29 92 30 92 -37 31
c-101 88 -428 213 -498 191 -9 -3 -34 -41 -55 -85 l-39 -80 -61 0 -61 0 -35
72 c-50 105 -55 107 -144 87z m85 -169 c22 -44 45 -80 50 -81 6 0 53 -1 105
-1 52 0 99 1 105 1 5 1 28 37 51 82 l40 81 37 -7 c63 -11 153 -44 237 -86 124
-62 119 -53 90 -140 -13 -41 -25 -83 -25 -94 0 -27 139 -165 165 -165 11 0 53
12 94 25 88 29 78 36 145 -100 38 -77 86 -216 86 -250 0 -6 -28 -25 -62 -41
-106 -50 -103 -46 -102 -168 1 -58 6 -112 12 -119 6 -7 43 -28 82 -47 l71 -35
-6 -35 c-11 -61 -45 -152 -86 -235 -62 -124 -53 -119 -140 -90 -41 13 -83 25
-94 25 -27 0 -165 -139 -165 -165 0 -11 12 -53 25 -94 13 -40 23 -77 20 -81
-2 -4 -51 -30 -107 -58 -96 -47 -224 -92 -261 -92 -11 0 -31 29 -57 80 -22 44
-45 80 -50 81 -13 1 -197 1 -210 0 -5 -1 -28 -37 -51 -82 l-40 -81 -34 6 c-86
16 -325 116 -325 135 0 3 75 81 166 172 l166 166 60 -18 c76 -24 226 -25 312
-3 191 49 345 195 412 389 23 67 27 97 27 180 0 124 -17 179 -54 183 -22 3
-50 -20 -172 -142 -84 -84 -154 -146 -164 -145 -10 0 -65 17 -122 38 l-104 38
-38 104 c-21 57 -38 112 -38 122 -1 10 61 80 144 163 180 180 185 200 61 223
-300 55 -604 -146 -677 -449 -20 -80 -15 -222 9 -296 l19 -62 -169 -168 c-136
-137 -170 -166 -179 -154 -41 62 -110 234 -124 310 -6 36 -6 36 56 65 107 51
104 47 103 168 0 62 -5 111 -12 119 -6 7 -43 29 -82 48 l-71 35 6 35 c11 61
45 152 86 235 62 124 53 119 140 90 41 -13 83 -25 94 -25 26 0 165 138 165
165 0 11 -12 53 -25 94 -13 40 -23 77 -20 81 9 14 198 103 267 125 114 36 112
37 158 -55z"/>
</g>
</svg>
